<svg width="520" height="360" viewBox="0 0 520 360" fill="none" xmlns="http://www.w3.org/2000/svg">
  <rect width="520" height="360" rx="28" fill="#FFF7F0"/>
  <circle cx="132" cy="130" r="58" fill="#F7D9D0"/>
  <circle cx="364" cy="232" r="82" fill="#D9EEF0"/>
  <rect x="150" y="74" width="230" height="150" rx="26" fill="#1F1D18"/>
  <rect x="176" y="100" width="110" height="14" rx="7" fill="#F6EFE4"/>
  <rect x="176" y="128" width="78" height="10" rx="5" fill="#BB3E2D"/>
  <rect x="176" y="156" width="158" height="10" rx="5" fill="#F6EFE4" fill-opacity="0.88"/>
  <rect x="176" y="176" width="132" height="10" rx="5" fill="#F6EFE4" fill-opacity="0.78"/>
  <circle cx="388" cy="112" r="42" fill="#BB3E2D"/>
  <path d="M372 112H404" stroke="#FFF7F0" stroke-width="10" stroke-linecap="round"/>
  <path d="M388 96V128" stroke="#FFF7F0" stroke-width="10" stroke-linecap="round"/>
  <rect x="320" y="176" width="102" height="102" rx="24" fill="#FFF7F0" stroke="#BB3E2D" stroke-width="8"/>
  <path d="M350 227H392" stroke="#BB3E2D" stroke-width="10" stroke-linecap="round"/>
  <path d="M371 206V248" stroke="#BB3E2D" stroke-width="10" stroke-linecap="round"/>
  <circle cx="214" cy="264" r="18" fill="#0D6774"/>
  <circle cx="256" cy="264" r="18" fill="#0D6774"/>
  <circle cx="298" cy="264" r="18" fill="#0D6774"/>
</svg>