<svg width="600" height="300" viewBox="0 0 600 300" fill="none" xmlns="http://www.w3.org/2000/svg">
  <rect width="600" height="300" rx="12" fill="#FDFBFD"/>
  
  <rect x="40" y="50" width="140" height="200" rx="12" fill="#FFFFFF" stroke="#E2E8F0"/>
  <text x="110" y="80" font-family="Arial" font-size="12" font-weight="bold" fill="#1E293B" text-anchor="middle">ATS PORTAL</text>
  <rect x="60" y="110" width="100" height="20" rx="4" fill="#F1F5F9"/>
  <rect x="60" y="140" width="100" height="20" rx="4" fill="#F1F5F9"/>
  <rect x="60" y="170" width="100" height="20" rx="4" fill="#F1F5F9"/>

  <path d="M180 150 L260 150" stroke="#BB3E2D" stroke-width="2" marker-end="url(#arrow)"/>

  <rect x="260" y="100" width="120" height="100" rx="50" fill="#F8FAFC" stroke="#334155"/>
  <text x="320" y="145" font-family="Arial" font-size="11" font-weight="bold" fill="#1E293B" text-anchor="middle">DATA</text>
  <text x="320" y="165" font-family="Arial" font-size="11" font-weight="bold" fill="#1E293B" text-anchor="middle">INGESTION</text>

  <path d="M380 150 L460 150" stroke="#BB3E2D" stroke-width="2" marker-end="url(#arrow)"/>

  <rect x="460" y="80" width="100" height="140" rx="8" fill="#ECFDF5" stroke="#10B981"/>
  <text x="510" y="120" font-family="Arial" font-size="10" font-weight="bold" fill="#065F46" text-anchor="middle">WORKFLOW</text>
  <text x="510" y="150" font-family="Arial" font-size="9" fill="#059669" text-anchor="middle">Shortlist</text>
  <text x="510" y="170" font-family="Arial" font-size="9" fill="#059669" text-anchor="middle">Interview</text>
  <text x="510" y="190" font-family="Arial" font-size="9" fill="#059669" text-anchor="middle">Hire</text>

  <defs>
    <marker id="arrow" viewBox="0 0 10 10" refX="10" refY="5" markerWidth="6" markerHeight="6" orient="auto">
      <path d="M 0 0 L 10 5 L 0 10 z" fill="#BB3E2D" />
    </marker>
  </defs>
</svg>
